<svg width="153" height="55" viewBox="0 0 153 55" fill="none" xmlns="http://www.w3.org/2000/svg">
<g clip-path="url(#clip0_51_5173)">
<path d="M34.1633 36.6934C34.3754 36.07 34.5119 35.4688 34.5728 34.8897C34.6336 34.3106 34.665 33.6153 34.665 32.802V24.9712H36.8025L44.2497 35.2567V28.6616C44.2497 28.0714 44.2054 27.437 44.1169 26.7583C44.0284 26.0796 43.9048 25.4839 43.7499 24.9712H45.0851C44.9284 25.4839 44.8066 26.0814 44.7181 26.7657C44.6296 27.4499 44.5853 28.0825 44.5853 28.6616V36.6934H41.9462L34.9822 27.0755L34.9988 32.8038C34.9988 33.5047 35.032 34.176 35.0984 34.8159C35.1648 35.4559 35.2994 36.083 35.4986 36.6953H34.1633V36.6934Z" fill="#F8F1D7"/>
<path d="M52.7314 36.961C51.0624 36.961 49.3195 36.666 47.5048 36.0758L47.6043 34.0711C48.6611 34.9176 49.6644 35.5373 50.6105 35.9338C51.5566 36.3285 52.4087 36.5258 53.1648 36.5258C53.7107 36.5258 54.1829 36.393 54.5849 36.1256C54.987 35.8582 55.2562 35.5188 55.3946 35.1075C55.5329 34.6963 55.5034 34.2776 55.3024 33.8553C55.1456 33.5325 54.8855 33.2227 54.5167 32.9276C54.1497 32.6325 53.7421 32.3651 53.2976 32.1254C52.8513 31.8856 52.2575 31.5942 51.5105 31.2493C50.5976 30.827 49.8636 30.4563 49.3066 30.1391C48.7496 29.8219 48.283 29.4604 47.9031 29.0528C47.525 28.6471 47.3351 28.2044 47.3351 27.7249C47.3351 27.0684 47.5859 26.5114 48.0857 26.0558C48.5873 25.6003 49.266 25.2573 50.1236 25.0286C50.9812 24.7999 51.9495 24.6855 53.0284 24.6855C54.5536 24.6855 56.1231 24.9087 57.7368 25.3532L57.6372 27.3561C56.5343 26.5888 55.5052 26.0226 54.548 25.6612C53.5909 25.2997 52.7665 25.119 52.0767 25.119C51.6544 25.119 51.2781 25.1577 50.9499 25.2351C50.6216 25.3126 50.3505 25.4491 50.1402 25.6446C49.9281 25.8401 49.823 26.1149 49.823 26.4708C49.823 26.7272 49.965 26.9835 50.249 27.238C50.5331 27.4944 50.889 27.7397 51.3169 27.972C51.7447 28.2063 52.3331 28.5014 53.0782 28.8573C54.17 29.3811 55.0589 29.8421 55.7505 30.2442C56.4403 30.6444 57.0341 31.1147 57.5284 31.6551C58.0245 32.1954 58.2716 32.7874 58.2716 33.4329C58.2716 34.167 58.0485 34.7996 57.604 35.3289C57.1595 35.8582 56.5196 36.2621 55.6841 36.5387C54.8487 36.8172 53.8638 36.9555 52.7277 36.9555L52.7314 36.961Z" fill="#F8F1D7"/>
<path d="M60.6803 36.6934V24.9712H66.7756C67.6554 24.9712 68.4004 25.1335 69.0127 25.4562C69.625 25.779 70.0806 26.2013 70.3812 26.7251C70.6818 27.2489 70.8312 27.8058 70.8312 28.3942C70.8312 29.2075 70.5748 29.8585 70.064 30.3473C69.5513 30.8378 68.9648 31.179 68.3027 31.3745C67.6406 31.57 67.0633 31.6659 66.5746 31.6659H64.0203V36.6916H60.6803V36.6934ZM65.1545 31.3339C65.6322 31.3339 66.0471 31.1864 66.3994 30.8913C66.7498 30.5962 67.0135 30.2182 67.1924 29.7552C67.3695 29.2942 67.4599 28.8184 67.4599 28.3278C67.4599 27.8372 67.3732 27.3761 67.2017 26.9077C67.0283 26.4392 66.7683 26.0556 66.416 25.755C66.0637 25.4544 65.6451 25.305 65.1545 25.305H64.0184V31.3339H65.1545Z" fill="#F8F1D7"/>
<path d="M72.7861 36.6934V24.9712H82.2546V26.9741C81.6645 26.5517 81.113 26.2235 80.6022 25.9892C80.0913 25.755 79.4827 25.5835 78.7819 25.471C78.0811 25.3603 77.1958 25.3032 76.1261 25.3032V36.3578C77.2622 36.3578 78.1862 36.3098 78.8981 36.2157C79.61 36.1217 80.2425 35.9575 80.794 35.7233C81.3454 35.4891 81.9153 35.1442 82.5055 34.6887V36.6934H72.7861ZM75.9583 30.2643V29.9304H81.1352V30.2643H75.9583Z" fill="#F8F1D7"/>
<path d="M90.9375 36.961C89.5912 36.961 88.4016 36.736 87.3725 36.2842C86.3434 35.8323 85.5375 35.1629 84.9602 34.2721C84.3811 33.3813 84.0916 32.2913 84.0916 30.9985C84.0916 29.63 84.3922 28.4682 84.9934 27.5165C85.5946 26.5649 86.4098 25.853 87.4389 25.379C88.468 24.9069 89.6299 24.6689 90.9209 24.6689C92.2119 24.6689 93.549 24.9032 94.8953 25.3698L94.6777 27.4409C94.4435 27.2288 94.1207 26.9061 93.7095 26.4726C93.2521 25.995 92.8888 25.6464 92.6158 25.4288C92.3428 25.2112 92.0736 25.1024 91.8062 25.1024C90.849 25.1024 90.0449 25.331 89.3938 25.7866C88.7428 26.244 88.2522 26.9079 87.924 27.7821C87.5957 28.6563 87.4315 29.7278 87.4315 30.9967C87.4315 31.9317 87.6215 32.828 87.9996 33.6856C88.3777 34.5432 88.8977 35.2366 89.5617 35.7641C90.2238 36.2934 90.967 36.5571 91.7914 36.5571C92.0699 36.5571 92.365 36.4244 92.6767 36.1569C92.9883 35.8895 93.383 35.4948 93.8625 34.9711C94.2074 34.6041 94.4527 34.3532 94.5965 34.2205L94.8972 36.3746C93.4937 36.7637 92.175 36.9592 90.9394 36.9592L90.9375 36.961Z" fill="#F8F1D7"/>
<path d="M100.271 25.305C99.5134 25.305 98.8274 25.4452 98.2095 25.7218C97.5917 26.0003 96.9997 26.4171 96.4316 26.9741V24.9712H107.453V26.9741C106.874 26.406 106.295 25.9855 105.716 25.7126C105.137 25.4396 104.436 25.3032 103.611 25.3032V36.6916H100.271V25.3032V25.305Z" fill="#F8F1D7"/>
<path d="M114.382 36.9611C112.989 36.9611 111.822 36.6992 110.876 36.1754C109.93 35.6516 109.229 34.9342 108.772 34.0213C108.314 33.1084 108.087 32.0682 108.087 30.8989C108.087 29.5526 108.312 28.4184 108.764 27.4999C109.214 26.5815 109.908 25.8862 110.843 25.4122C111.778 24.9401 112.958 24.7021 114.384 24.7021C115.809 24.7021 116.988 24.9382 117.923 25.4122C118.858 25.8862 119.551 26.5815 120.001 27.4999C120.453 28.4184 120.678 29.5507 120.678 30.8989C120.678 32.0682 120.45 33.1084 119.994 34.0213C119.537 34.9342 118.836 35.6516 117.89 36.1754C116.944 36.6992 115.774 36.9611 114.384 36.9611H114.382ZM114.382 36.6272C115.116 36.6272 115.701 36.3856 116.136 35.9006C116.569 35.4155 116.879 34.7516 117.062 33.9051C117.246 33.0586 117.336 32.0571 117.336 30.8989C117.336 29.7407 117.244 28.7614 117.062 27.8927C116.877 27.0241 116.566 26.3306 116.127 25.8142C115.688 25.296 115.105 25.0378 114.382 25.0378C113.602 25.0378 112.995 25.2942 112.562 25.805C112.128 26.3177 111.829 26.9983 111.669 27.8503C111.509 28.7024 111.427 29.7186 111.427 30.8971C111.427 32.0756 111.527 33.0254 111.728 33.8774C111.929 34.7295 112.248 35.3989 112.689 35.8895C113.128 36.3801 113.694 36.6235 114.384 36.6235L114.382 36.6272Z" fill="#F8F1D7"/>
<path d="M122.93 36.6934V24.9712H129.026C129.905 24.9712 130.65 25.1335 131.263 25.4562C131.875 25.779 132.33 26.2013 132.631 26.7251C132.932 27.2489 133.081 27.8058 133.081 28.3942C133.081 29.2075 132.825 29.8585 132.314 30.3473C131.801 30.8378 131.215 31.179 130.553 31.3745C129.89 31.57 129.313 31.6659 128.824 31.6659H126.27V36.6916H122.93V36.6934ZM127.404 31.3339C127.882 31.3339 128.297 31.1864 128.649 30.8913C129 30.5962 129.263 30.2182 129.442 29.7552C129.619 29.2942 129.71 28.8184 129.71 28.3278C129.71 27.8372 129.623 27.3761 129.452 26.9077C129.278 26.4392 129.018 26.0556 128.666 25.755C128.314 25.4544 127.895 25.305 127.404 25.305H126.268V31.3339H127.404Z" fill="#F8F1D7"/>
<path d="M135.036 36.6934V24.9712H138.376V36.6934H135.036Z" fill="#F8F1D7"/>
<path d="M140.296 36.6934L144.971 24.9712H148.311L152.986 36.6934H151.651C151.651 36.0811 151.607 35.3987 151.518 34.6481C151.43 33.8975 151.234 33.1432 150.934 32.3852L150.633 31.6161H145.657L143.636 36.6916H140.296V36.6934ZM145.79 31.2823H150.498L148.143 25.388L145.788 31.2823H145.79Z" fill="#F8F1D7"/>
<path d="M12.495 32.461H4.61072V30.6831C4.61072 28.0108 6.69844 25.7977 9.36342 25.6464C9.45563 25.6409 9.55522 25.6372 9.65666 25.6372H15.5842V29.2335H14.8464C13.5241 29.2335 12.4489 30.3088 12.4489 31.6311C12.4489 31.6477 12.4489 31.6643 12.4489 31.6809L12.4932 32.461H12.495ZM6.08614 30.9856H11.027C11.2944 29.3977 12.5319 28.1344 14.1087 27.8282V27.1126H9.65666C9.58842 27.1126 9.52203 27.1126 9.45563 27.1182C7.5634 27.227 6.08798 28.7909 6.08798 30.6831V30.9856H6.08614Z" fill="#F8F1D7"/>
<path d="M8.66809 27.1718V25.6465L9.65662 25.6392V26.3769L10.1435 26.3842H9.65662V27.1146C9.58838 27.1146 9.52199 27.1146 9.4556 27.1201L8.66993 27.1718H8.66809Z" fill="#F8F1D7"/>
<path d="M25.0822 32.461H17.1942L17.244 31.6772C17.244 31.6625 17.244 31.6477 17.244 31.6311C17.244 30.3088 16.1688 29.2335 14.8465 29.2335H14.1088V25.6372H20.0363C20.0676 25.6372 20.1008 25.6372 20.134 25.6391C22.8654 25.6907 25.0822 27.9481 25.0822 30.6831V32.461ZM18.666 30.9856H23.6068V30.6831C23.6068 28.7448 22.0299 27.144 20.0916 27.1145H20.04L15.5842 27.1126V27.8282C17.1592 28.1325 18.3986 29.3958 18.666 30.9856Z" fill="#F8F1D7"/>
<path d="M20.8403 27.1809L20.0362 27.1126V26.3768H19.3649L20.0362 26.3749V25.6372H20.8403V27.1809Z" fill="#F8F1D7"/>
<path d="M9.40581 27.1126H0.73771C0.330125 27.1126 0 26.7825 0 26.3749V24.9917C0 18.5921 4.07585 12.932 10.1435 10.907C10.4497 10.8055 10.7853 10.9125 10.9753 11.1744C11.1652 11.4363 11.1616 11.7885 10.9698 12.0467C10.3611 12.8638 10.0402 13.8375 10.0402 14.8593C10.0402 15.6707 10.2486 16.4693 10.6452 17.1701C11.1671 18.096 11.9952 18.8245 12.9763 19.2228C13.3489 19.3741 13.5315 19.7964 13.3858 20.1726C13.3138 20.3589 13.2769 20.5525 13.2769 20.7499V21.1648C13.2769 21.5005 13.0501 21.7937 12.7255 21.8786C11.204 22.2751 10.1417 23.6528 10.1417 25.2278V26.3749C10.1417 26.7825 9.81155 27.1126 9.40396 27.1126H9.40581ZM1.47542 25.6372H8.6681V25.2278C8.6681 23.1769 9.93327 21.3603 11.8052 20.6282C11.8089 20.523 11.82 20.4179 11.8347 20.3128C10.8038 19.7595 9.9388 18.9185 9.36155 17.8949C8.84146 16.9746 8.56482 15.9234 8.56482 14.8574C8.56482 14.2341 8.65519 13.6236 8.83408 13.0427C4.3654 15.2871 1.47542 19.8775 1.47542 24.9899V25.6354V25.6372Z" fill="#F8F1D7"/>
<path d="M28.9552 27.1125H20.1027C19.6951 27.1125 19.365 26.7824 19.365 26.3748V25.2276C19.365 23.7024 18.3875 22.3727 16.9324 21.919C16.6244 21.8231 16.4141 21.5373 16.4141 21.2145V20.7497C16.4141 20.5358 16.3717 20.3274 16.2869 20.1301C16.1282 19.7594 16.2979 19.3278 16.6668 19.1655C17.5871 18.7579 18.3654 18.0497 18.8633 17.17C19.2598 16.4692 19.4682 15.6706 19.4682 14.8591C19.4682 13.8024 19.127 12.8065 18.4834 11.9784C18.286 11.7239 18.2768 11.3698 18.4594 11.1042C18.6438 10.8386 18.9795 10.7243 19.2856 10.8202C21.556 11.5302 23.6492 12.8009 25.3422 14.494C28.1474 17.2973 29.6911 21.0245 29.6911 24.9916V26.3748C29.6911 26.7824 29.3609 27.1125 28.9533 27.1125H28.9552ZM20.8404 25.6371H28.2175V24.9916C28.2175 21.4192 26.8269 18.0626 24.3002 15.5378C23.2342 14.4718 21.9912 13.5921 20.643 12.9392C20.8422 13.5515 20.9437 14.1952 20.9437 14.8591C20.9437 15.9251 20.6689 16.9745 20.1469 17.8967C19.6029 18.8612 18.7988 19.669 17.8434 20.2204C17.8711 20.379 17.8858 20.5395 17.8895 20.7036C19.6748 21.4838 20.8404 23.2395 20.8404 25.2276V25.6371Z" fill="#F8F1D7"/>
<path d="M15.5842 50.9035H14.8464C9.20297 50.9035 4.61072 46.3113 4.61072 40.6678V30.9854H12.4304L12.4507 31.7028C12.4876 33.0067 13.5407 34.0284 14.8464 34.0284H15.5842V50.9035ZM6.08614 32.4608V40.6678C6.08614 45.249 9.62162 49.0205 14.1087 49.3968V35.4337C12.5854 35.1442 11.3866 33.9768 11.062 32.4589H6.08614V32.4608Z" fill="#F8F1D7"/>
<path d="M14.8465 50.9035H14.1088V34.0284H14.8465C16.1522 34.0284 17.2053 33.0067 17.2422 31.7028L17.2625 30.9854H25.0822V40.6678C25.0822 46.3113 20.49 50.9035 14.8465 50.9035ZM15.5842 35.4356V49.3986C20.0713 49.0224 23.6068 45.2508 23.6068 40.6696V32.4626H18.6309C18.3063 33.9786 17.1076 35.1479 15.5842 35.4374V35.4356Z" fill="#F8F1D7"/>
<path d="M16.8751 54.9997C16.5136 54.9997 16.1983 54.7341 16.1466 54.3671C16.0895 53.9632 16.368 53.5906 16.7718 53.5316C23.2969 52.5929 28.2193 46.9033 28.2193 40.2989V32.4608H25.084V40.6678C25.084 46.3113 20.4918 50.9035 14.8483 50.9035C9.20478 50.9035 4.61253 46.3113 4.61253 40.6678V32.4608H1.47542V40.2989C1.47542 43.8713 2.866 47.2297 5.39266 49.7527C7.45088 51.8128 10.055 53.1204 12.9228 53.5316C13.3267 53.5888 13.6071 53.9632 13.5481 54.3671C13.4909 54.771 13.1146 55.0495 12.7126 54.9923C9.52569 54.5349 6.63386 53.0835 4.3488 50.7966C1.5455 47.9951 0 44.266 0 40.2989V31.7231C0 31.3155 0.330125 30.9854 0.73771 30.9854H5.3484C5.75599 30.9854 6.08611 31.3155 6.08611 31.7231V40.6678C6.08611 45.498 10.0163 49.4281 14.8464 49.4281C19.6766 49.4281 23.6067 45.498 23.6067 40.6678V31.7231C23.6067 31.3155 23.9369 30.9854 24.3444 30.9854H28.9551C29.3627 30.9854 29.6928 31.3155 29.6928 31.7231V40.2989C29.6928 43.8916 28.3926 47.357 26.032 50.0607C23.6934 52.7367 20.4788 54.4888 16.9802 54.9923C16.9452 54.9978 16.9102 54.9997 16.8751 54.9997Z" fill="#F8F1D7"/>
<path d="M17.8895 22.2141L16.9341 21.919C16.6003 21.8157 16.2517 21.7641 15.9013 21.7641H13.607C13.3083 21.7641 13.0132 21.8028 12.731 21.8784L11.8033 22.1255V20.7516C11.8033 20.3716 11.8734 19.9991 12.0117 19.6431C12.4765 18.4665 13.5886 17.7085 14.8464 17.7085C15.6597 17.7085 16.4233 18.0257 16.9987 18.5993C17.2735 18.8741 17.4911 19.195 17.6442 19.5509C17.8083 19.9327 17.8895 20.3366 17.8895 20.7497V22.2141ZM13.607 20.2886H15.9013C16.0526 20.2886 16.2019 20.296 16.3513 20.3089C16.3329 20.2481 16.3126 20.189 16.2868 20.13C16.2093 19.9493 16.095 19.7796 15.9548 19.6395C15.6597 19.3444 15.2651 19.1802 14.8464 19.1802C14.1972 19.1802 13.6236 19.5712 13.3857 20.1761C13.371 20.2149 13.3581 20.2536 13.3452 20.2942C13.4318 20.2905 13.5185 20.2868 13.607 20.2868V20.2886Z" fill="#F8F1D7"/>
<path d="M20.8403 27.1124H8.66809V25.2275C8.66809 22.9812 10.1841 21.0171 12.3548 20.4509C12.7587 20.3439 13.181 20.2886 13.6071 20.2886H15.9013C16.3993 20.2886 16.8936 20.3623 17.3694 20.5099C19.446 21.1572 20.8403 23.0531 20.8403 25.2275V27.1124ZM10.1435 25.637H19.3649V25.2275C19.3649 23.7023 18.3874 22.3726 16.9323 21.9189C16.6003 21.8156 16.2518 21.764 15.9013 21.764H13.6071C13.3083 21.764 13.0132 21.8027 12.731 21.8783C11.2058 22.2767 10.1435 23.6525 10.1435 25.2294V25.6388V25.637Z" fill="#F8F1D7"/>
<path d="M10.1436 27.1124H7.0083V22.6861C7.0083 20.5302 7.91753 18.4553 9.50361 16.991L10.1878 16.3584L10.6452 17.1699C11.1671 18.0939 11.9952 18.8242 12.9764 19.2226L13.6477 19.4955L13.3858 20.1724C13.3139 20.3586 13.277 20.5523 13.277 20.7496V21.7345L12.7256 21.8783C11.204 22.2748 10.1417 23.6525 10.1417 25.2275V27.1124H10.1436ZM8.48372 25.637H8.66815V25.2275C8.66815 23.1767 9.93332 21.3601 11.8053 20.6279C11.809 20.5228 11.82 20.4177 11.8348 20.3125C11.0915 19.9142 10.4331 19.3646 9.9075 18.7062C8.99459 19.8219 8.48372 21.231 8.48372 22.6843V25.6351V25.637Z" fill="#F8F1D7"/>
<path d="M22.5002 27.1124H19.3649V25.2275C19.3649 23.7023 18.3875 22.3726 16.9323 21.9189L16.4141 21.7566V20.7496C16.4141 20.5357 16.3717 20.3273 16.2868 20.1299L16.001 19.4605L16.6668 19.1654C17.5871 18.7578 18.3653 18.0496 18.8633 17.1699L19.3207 16.3584L20.0049 16.9891C20.0824 17.0611 20.158 17.133 20.2317 17.2068C21.6943 18.6674 22.5002 20.6131 22.5002 22.6843V27.1105V27.1124ZM20.8404 25.637H21.0248V22.6861C21.0248 21.2162 20.5231 19.8238 19.601 18.7062C19.116 19.3148 18.5166 19.8312 17.8434 20.2203C17.8711 20.3789 17.8858 20.5394 17.8895 20.7035C19.6748 21.4836 20.8404 23.2394 20.8404 25.2275V25.637Z" fill="#F8F1D7"/>
<path d="M14.8464 35.5038C12.7384 35.5038 11.0398 33.8568 10.9752 31.7525C10.9734 31.7119 10.9734 31.6714 10.9734 31.6308C10.9734 29.4951 12.7107 27.7578 14.8464 27.7578C16.982 27.7578 18.7193 29.4951 18.7193 31.6308C18.7193 31.6732 18.7193 31.7138 18.7175 31.7544C18.6511 33.8568 16.9544 35.5038 14.8464 35.5038ZM14.8464 29.2332C13.524 29.2332 12.4488 30.3084 12.4488 31.6308C12.4488 31.6474 12.4488 31.664 12.4488 31.6806C12.4488 31.688 12.4488 31.6953 12.4488 31.7027C12.4857 33.0066 13.5388 34.0284 14.8445 34.0284C16.1503 34.0284 17.2034 33.0066 17.2402 31.7027C17.2402 31.6935 17.2402 31.6861 17.2402 31.6769C17.2402 31.6621 17.2402 31.6474 17.2402 31.6308C17.2402 30.3084 16.165 29.2332 14.8427 29.2332H14.8464Z" fill="#F8F1D7"/>
<path d="M14.8299 9.45022C14.6915 9.45022 14.5514 9.44469 14.4094 9.43178C13.1423 9.32112 11.9934 8.72173 11.1764 7.74795C10.3593 6.77418 9.97019 5.53851 10.0809 4.27149C10.2044 2.87538 10.9292 1.61205 12.0727 0.800566C12.4046 0.564498 12.8657 0.643802 13.1018 0.975772C13.3378 1.30774 13.2585 1.76881 12.9266 2.00488C12.1372 2.56369 11.6356 3.43788 11.5507 4.40059C11.4733 5.27478 11.7425 6.12868 12.3069 6.8C12.8712 7.47316 13.6643 7.88627 14.5385 7.96189C16.3459 8.1205 17.943 6.77971 18.1016 4.97416C18.1994 3.86022 17.7309 2.78316 16.8493 2.09525C16.5284 1.84443 16.4713 1.38151 16.7221 1.05876C16.9729 0.73786 17.4377 0.680688 17.7586 0.931509C19.0348 1.92926 19.7135 3.48952 19.5715 5.10326C19.3539 7.57828 17.2698 9.45022 14.8299 9.45022Z" fill="#F8F1D7"/>
<path d="M14.8261 1.3537C15.2 1.3537 15.503 1.05066 15.503 0.676849C15.503 0.303036 15.2 0 14.8261 0C14.4523 0 14.1493 0.303036 14.1493 0.676849C14.1493 1.05066 14.4523 1.3537 14.8261 1.3537Z" fill="#F8F1D7"/>
</g>
<defs>
<clipPath id="clip0_51_5173">
<rect width="152.988" height="55" fill="white"/>
</clipPath>
</defs>
</svg>
